# xmcd
# 
# Track frame offsets:
#     150
#     50983
#     160527
#     195802
#     231798
#     268788
#     288403
# 
# Disc length: 4053
# 
# Revision: 0
# Processed by: cddbd v1.5.2PL0 Copyright (c) Steve Scherf et al.
# Submitted via: fre:ac v1.0.17
# 
DISCID=5b0fd307
DTITLE=nguage And Culture University - 发展汉语: 高级汉语听力（下）
DYEAR=0
DGENRE=
TTITLE0=第30课 课文1: “见死不救罪” 能成立吗
TTITLE1=第30课 课文2: 单元测试(五)
TTITLE2=第30课 课文3: “儿童专家” 靠边站
TTITLE3=第31课 课文1: 火车将爬上世界屋脊
TTITLE4=第31课 课文2: 广告有时是把刀
TTITLE5=第31课 课文3: 最好的爱
TTITLE6=第31课 课文4: 说鱼
EXTD=Cd 5/7
EXTT0=
EXTT1=
EXTT2=
EXTT3=
EXTT4=
EXTT5=
EXTT6=
PLAYORDER=
